<svg width="34" height="25" xmlns="http://www.w3.org/2000/svg">
 <g>
  <title>background</title>
  <rect x="-1" y="-1" width="36" height="27" id="canvas_background" fill="none"/>
 </g>

 <g>
  <title>Layer 1</title>
  <path stroke-width="0" stroke="#0F61B5" fill="#0F61B5" d="m17.166538,-0.001532l0.136604,0c6.101751,0.189169 10.45293,1.146026 13.053549,2.870569c2.74222,1.824721 4.113348,3.682801 4.113386,5.574242c-0.364323,1.702329 -1.067596,2.553487 -2.109821,2.553472c-0.060745,0.000015 -0.126522,-0.005548 -0.197319,-0.016688l-6.177666,-2.336509c-0.607172,-0.200257 -0.910744,-0.539609 -0.910713,-1.01805c-0.000031,-0.211383 0.060684,-0.456161 0.182142,-0.734334c0.688065,-0.789944 1.032114,-1.362946 1.032141,-1.719002c-0.000027,-0.255885 -0.172052,-0.400525 -0.516069,-0.433923l-17.060683,0c-0.344056,0.033398 -0.51608,0.178039 -0.51607,0.433923c-0.00001,0.356057 0.344038,0.929059 1.032142,1.719002c0.121416,0.267047 0.182131,0.511825 0.182142,0.734334c-0.000011,0.478441 -0.308642,0.817793 -0.925891,1.01805l-6.177665,2.336509c-0.070837,0.01114 -0.136611,0.016704 -0.197321,0.016688c-1.032145,0.000015 -1.735417,-0.851143 -2.109819,-2.553472c-0.000002,-1.89144 1.376185,-3.74952 4.128566,-5.574242c2.590459,-1.702291 6.936578,-2.659148 13.038366,-2.870569l0,0zm3.658028,6.892702l0,-1.251701l2.185711,0l0,2.536781c-0.000025,0.834484 1.219318,1.568813 3.65803,2.202996c2.337463,1.057005 3.506212,3.176551 3.506241,6.358641l0,8.177786l-25.879412,0l0,-8.177786c-0.000006,-3.18209 1.173798,-5.301636 3.52142,-6.358641c2.428554,-0.634183 3.642838,-1.368512 3.642851,-2.202996l0,-2.536781l2.20089,0l0,1.251701l7.16427,0zm-9.759803,9.129077c-0.000012,1.858088 0.597011,3.438013 1.791069,4.73978c1.194027,1.301769 2.625872,1.952654 4.295529,1.952648c1.699974,0.000006 3.141933,-0.650879 4.325882,-1.952648c1.183905,-1.301767 1.775866,-2.881693 1.77589,-4.73978c-0.000025,-1.846945 -0.589457,-3.426866 -1.768299,-4.739777c-1.17889,-1.312881 -2.623379,-1.969328 -4.333473,-1.969344c-1.689897,0.000016 -3.1268,0.656463 -4.310709,1.969344c-1.183939,1.312911 -1.775902,2.892832 -1.775889,4.739777l0,0zm9.501769,-0.016691c-0.000023,1.034748 -0.331419,1.919283 -0.994192,2.65361c-0.662821,0.734337 -1.46981,1.101503 -2.420979,1.101498c-0.94109,0.000006 -1.743022,-0.367161 -2.4058,-1.101498c-0.662814,-0.734327 -0.994213,-1.618862 -0.994196,-2.65361c-0.000017,-1.056981 0.331382,-1.949862 0.994196,-2.678638c0.662778,-0.728755 1.46471,-1.093143 2.4058,-1.093152c0.951168,0.000009 1.758158,0.364397 2.420979,1.093152c0.662773,0.728777 0.994169,1.621657 0.994192,2.678638l0,0zm-2.413387,-5.290524c-0.000021,0.24479 -0.080976,0.461751 -0.242859,0.650885c-0.161924,0.189158 -0.364302,0.283732 -0.607143,0.28372c-0.232754,0.000012 -0.432604,-0.094558 -0.599552,-0.28372c-0.166983,-0.189134 -0.250463,-0.406095 -0.250444,-0.650885c-0.000019,-0.267016 0.083462,-0.495103 0.250444,-0.684263c0.166948,-0.189132 0.366798,-0.283706 0.599552,-0.28372c0.242842,0.000014 0.445219,0.094588 0.607143,0.28372c0.161882,0.18916 0.242838,0.417247 0.242859,0.684263l0,0zm0,10.497602c-0.000021,0.267033 -0.080976,0.492344 -0.242859,0.67592c-0.161924,0.183584 -0.364302,0.275379 -0.607143,0.275379c-0.232754,0 -0.432604,-0.091795 -0.599552,-0.275379c-0.166983,-0.183577 -0.250463,-0.408888 -0.250444,-0.67592c-0.000019,-0.255896 0.083462,-0.478418 0.250444,-0.667572c0.166948,-0.18914 0.366798,-0.283712 0.599552,-0.28372c0.242842,0.000008 0.445219,0.09458 0.607143,0.28372c0.161882,0.189154 0.242838,0.411676 0.242859,0.667572l0,0zm-3.384816,-10.414156c0.141647,0.022266 0.278256,0.13909 0.409821,0.350477c0.13153,0.211412 0.182125,0.44506 0.151787,0.700951c-0.030375,0.255918 -0.141686,0.456189 -0.33393,0.600818c-0.192277,0.166908 -0.404778,0.230883 -0.637499,0.191925c-0.232753,-0.038928 -0.419956,-0.164098 -0.561605,-0.375508c-0.141684,-0.222511 -0.192279,-0.45894 -0.151785,-0.709297c0.040458,-0.250327 0.156828,-0.458941 0.349106,-0.625853c0.151769,-0.111246 0.313672,-0.166878 0.485712,-0.16689c0.050579,0.000012 0.146708,0.011138 0.288394,0.033378l0,0zm6.025882,8.845358c0.151762,0.211401 0.209946,0.445057 0.174553,0.700953c-0.035439,0.255911 -0.154339,0.467306 -0.356695,0.634195c-0.15181,0.111265 -0.313711,0.166897 -0.485712,0.166895c-0.050619,0.000002 -0.14422,-0.011124 -0.280806,-0.033381c-0.136629,-0.022249 -0.280823,-0.144636 -0.432589,-0.367165c-0.131571,-0.21139 -0.179634,-0.442263 -0.144196,-0.692612c0.035395,-0.250328 0.149235,-0.453386 0.341516,-0.609158c0.192238,-0.144634 0.404741,-0.200268 0.637501,-0.166893c0.232714,0.033386 0.414856,0.155771 0.546427,0.367165l0,0zm-7.786594,-6.20844c0.242843,0.089021 0.414864,0.247569 0.516071,0.475645c0.101173,0.228099 0.116353,0.464532 0.045535,0.709301c-0.070847,0.244785 -0.212514,0.425587 -0.424998,0.542402c-0.212514,0.116837 -0.430074,0.141871 -0.652678,0.0751c-0.222631,-0.077873 -0.379478,-0.211388 -0.470535,-0.400544c-0.091086,-0.189134 -0.13662,-0.356028 -0.136606,-0.50068c-0.000013,-0.100124 0.015162,-0.200262 0.045536,-0.300405c0.080935,-0.244767 0.225134,-0.425569 0.432588,-0.542407c0.207424,-0.116816 0.422455,-0.136286 0.645088,-0.058413l0,0l0,0zm8.46204,3.30449c0.207417,-0.111248 0.422447,-0.127939 0.645088,-0.050064c0.222595,0.07789 0.376905,0.211403 0.462946,0.400545c0.085987,0.18915 0.12899,0.356047 0.129015,0.500677c-0.000025,0.089016 -0.015205,0.18359 -0.045536,0.28372c-0.080976,0.244783 -0.225172,0.425585 -0.432585,0.542404c-0.207464,0.116833 -0.422497,0.130741 -0.645094,0.041723c-0.222639,-0.077879 -0.387074,-0.230865 -0.493299,-0.458954c-0.106272,-0.228085 -0.123981,-0.470079 -0.053125,-0.725992c0.080929,-0.244764 0.225126,-0.422787 0.43259,-0.53406l0,0zm-9.448646,0.350481c0.091056,-0.189142 0.247904,-0.322655 0.470535,-0.400545c0.222605,-0.077875 0.440165,-0.061184 0.652678,0.050064c0.212484,0.111273 0.354152,0.289295 0.424998,0.53406c0.070818,0.267038 0.055638,0.514597 -0.045535,0.74268c-0.101208,0.228096 -0.263109,0.386642 -0.485715,0.475649c-0.242869,0.066761 -0.468018,0.041727 -0.675444,-0.075106c-0.207455,-0.116819 -0.35165,-0.297621 -0.432589,-0.542404c-0.030373,-0.10013 -0.045549,-0.194704 -0.045535,-0.28372c-0.000014,-0.14463 0.045521,-0.311527 0.136607,-0.500677l0,0l-0.000002,0zm9.56248,-3.654971c0.222597,-0.077873 0.43763,-0.058403 0.645094,0.058413c0.207415,0.116838 0.351608,0.29764 0.432585,0.542407c0.030331,0.100142 0.045511,0.194716 0.045536,0.28372c-0.000025,0.144649 -0.043028,0.308759 -0.129015,0.492332c-0.08604,0.183594 -0.240351,0.319889 -0.462946,0.408893c-0.222641,0.077893 -0.442732,0.058421 -0.660267,-0.058415c-0.217583,-0.116816 -0.356718,-0.297617 -0.417412,-0.542402c-0.070856,-0.244769 -0.053146,-0.481202 0.053125,-0.709299c0.106226,-0.228078 0.27066,-0.386626 0.493299,-0.475647l0,0zm-7.786589,6.20844c0.141649,-0.200264 0.328853,-0.319872 0.561605,-0.35882c0.232721,-0.038937 0.445222,0.013914 0.637499,0.158548c0.192244,0.155771 0.308615,0.364391 0.349106,0.625853c0.040461,0.261469 -0.015196,0.486776 -0.166963,0.675917c-0.131564,0.222528 -0.268173,0.344915 -0.409821,0.367165c-0.141685,0.022257 -0.237815,0.033382 -0.288394,0.033381c-0.17204,0.000002 -0.333943,-0.05563 -0.485712,-0.166895c-0.192278,-0.166889 -0.301059,-0.32822 -0.32634,-0.48399c-0.025312,-0.155764 -0.037963,-0.261463 -0.037946,-0.317101c-0.000017,-0.189142 0.055637,-0.367157 0.166965,-0.534058l0,0zm5.61606,-8.494881c0.151766,-0.211388 0.295959,-0.328211 0.432589,-0.350477c0.136585,-0.02224 0.230186,-0.033365 0.280806,-0.033378c0.172001,0.000012 0.333902,0.055644 0.485712,0.16689c0.202356,0.166911 0.313665,0.325459 0.333925,0.47565c0.020216,0.150215 0.030334,0.247571 0.030357,0.292064c-0.000023,0.200285 -0.060736,0.389431 -0.18214,0.567436c-0.131571,0.211411 -0.265648,0.32824 -0.402231,0.350479c-0.136627,0.022264 -0.230232,0.033388 -0.280806,0.033378c-0.182161,0.00001 -0.349129,-0.066747 -0.500891,-0.200274c-0.192282,-0.144629 -0.298531,-0.294831 -0.31875,-0.450612c-0.02026,-0.155754 -0.030376,-0.261452 -0.030357,-0.317098c-0.000019,-0.189134 0.050577,-0.367154 0.151787,-0.534059l0,0z" id="svg_1"/>
 </g>
</svg>