<svg viewbox="0 0 163 108" width="162.36719" height="107.91797" xmlns="http://www.w3.org/2000/svg">

<!-- <g>
  <title>background</title>
  <rect fill="none" id="canvas_background" height="109.91797" width="164.36719" y="-1" x="-1"/>
 </g>
 <g>
  <title>Layer 1</title>-->
  <path d="m80.867188,1.468896l0.632813,0c28.265503,0.796974 48.421738,4.828224 60.46875,12.09375c12.702957,7.687583 19.05452,15.5157 19.054688,23.484374c-1.687668,7.171936 -4.94548,10.757866 -9.773438,10.757805c-0.281403,0.000061 -0.586105,-0.023376 -0.914063,-0.070305l-28.617188,-9.84375c-2.812637,-0.843681 -4.218887,-2.273376 -4.21875,-4.289063c-0.000137,-0.890556 0.281113,-1.921806 0.84375,-3.09375c3.187363,-3.328049 4.781113,-5.742111 4.78125,-7.242188c-0.000137,-1.078041 -0.797012,-1.687416 -2.390625,-1.828125l-79.03125,0c-1.593796,0.140709 -2.390671,0.750084 -2.390625,1.828125c-0.000046,1.500076 1.593704,3.914139 4.78125,7.242188c0.562447,1.125069 0.843697,2.156319 0.84375,3.09375c-0.000053,2.015686 -1.429741,3.445381 -4.289063,4.289063l-28.617187,9.84375c-0.328144,0.046928 -0.632832,0.070366 -0.914063,0.070305c-4.781265,0.000061 -8.039074,-3.585869 -9.773437,-10.757805c-0.000011,-7.968674 6.374985,-15.796791 19.125001,-23.484374c11.999956,-7.171776 32.13275,-11.203026 60.398436,-12.09375l0,0zm16.945313,29.039062l0,-5.273438l10.125,0l0,10.6875c-0.000122,3.515686 5.648315,6.609436 16.945313,9.28125c10.827972,4.453178 16.242035,13.382858 16.242188,26.789055l0,34.453125l-119.882811,0l0,-34.453125c-0.000031,-13.406197 5.437466,-22.335876 16.312498,-26.789055c11.249939,-2.671814 16.874939,-5.765564 16.875,-9.28125l0,-10.6875l10.195313,0l0,5.273438l33.1875,0zm-45.210938,38.460945c-0.000061,7.82814 2.765564,14.48439 8.296875,19.96875c5.531174,5.484375 12.163986,8.226563 19.898445,8.226547c7.874901,0.000015 14.554581,-2.742172 20.039055,-8.226547c5.484268,-5.48436 8.22644,-12.14061 8.226563,-19.96875c-0.000122,-7.781219 -2.730576,-14.437454 -8.191406,-19.968758c-5.461044,-5.531189 -12.152443,-8.296806 -20.074211,-8.296875c-7.828209,0.000069 -14.484459,2.765686 -19.968758,8.296875c-5.484436,5.531303 -8.226624,12.187538 -8.226563,19.968758l0,0zm44.015625,-0.070328c-0.000107,4.359406 -1.535255,8.085968 -4.605469,11.179688c-3.070412,3.093781 -6.808685,4.640656 -11.214836,4.64064c-4.359459,0.000015 -8.074303,-1.54686 -11.144539,-4.64064c-3.070389,-3.093719 -4.605545,-6.820282 -4.605469,-11.179688c-0.000076,-4.453079 1.53508,-8.21479 4.605469,-11.285149c3.070236,-3.070259 6.78508,-4.605423 11.144539,-4.605469c4.406151,0.000046 8.144424,1.53521 11.214836,4.605469c3.070213,3.070358 4.605362,6.832069 4.605469,11.285149l0,0zm-11.179688,-22.289055c-0.000092,1.031303 -0.375092,1.945366 -1.125,2.742188c-0.750092,0.796928 -1.687592,1.195366 -2.8125,1.195313c-1.078209,0.000053 -2.00399,-0.398384 -2.777344,-1.195313c-0.773529,-0.796822 -1.160248,-1.710884 -1.160156,-2.742188c-0.000092,-1.124947 0.386627,-2.085876 1.160156,-2.882813c0.773354,-0.796814 1.699135,-1.195251 2.777344,-1.195313c1.124908,0.000061 2.062408,0.398499 2.8125,1.195313c0.749908,0.796936 1.124908,1.757866 1.125,2.882813l0,0zm0,44.226555c-0.000092,1.125015 -0.375092,2.074249 -1.125,2.847656c-0.750092,0.773453 -1.687592,1.160172 -2.8125,1.160172c-1.078209,0 -2.00399,-0.386719 -2.777344,-1.160172c-0.773529,-0.773407 -1.160248,-1.722641 -1.160156,-2.847656c-0.000092,-1.078094 0.386627,-2.015594 1.160156,-2.8125c0.773354,-0.796844 1.699135,-1.195282 2.777344,-1.195313c1.124908,0.000031 2.062408,0.398468 2.8125,1.195313c0.749908,0.796906 1.124908,1.734406 1.125,2.8125l0,0zm-15.679688,-43.875c0.656166,0.093811 1.288986,0.585999 1.898438,1.47657c0.609291,0.890678 0.843674,1.875053 0.703133,2.953125c-0.140709,1.078178 -0.656342,1.921928 -1.546883,2.53125c-0.890701,0.703178 -1.875076,0.97271 -2.953125,0.808586c-1.078201,-0.164009 -1.945389,-0.691353 -2.601563,-1.582031c-0.656326,-0.937439 -0.890701,-1.933525 -0.703125,-2.988281c0.187424,-1.054626 0.726486,-1.933525 1.617188,-2.636719c0.703049,-0.468689 1.453049,-0.703056 2.25,-0.703117c0.234299,0.000061 0.679604,0.046928 1.335938,0.140617l0,0zm27.914063,37.265625c0.703018,0.89064 0.972549,1.875031 0.808594,2.953125c-0.164169,1.078156 -0.714951,1.968765 -1.652344,2.671875c-0.703224,0.468765 -1.453224,0.70314 -2.249992,0.703125c-0.234482,0.000015 -0.668083,-0.04686 -1.300789,-0.140625c-0.632912,-0.093735 -1.30088,-0.60936 -2.003906,-1.546875c-0.609474,-0.890594 -0.83213,-1.863251 -0.667969,-2.917969c0.163963,-1.054657 0.691315,-1.910126 1.582031,-2.566406c0.890518,-0.609344 1.874901,-0.843719 2.953133,-0.703125c1.078018,0.140656 1.921761,0.656281 2.531242,1.546875l0,0zm-36.070313,-26.156242c1.124931,0.375046 1.921799,1.043007 2.390625,2.003899c0.468674,0.960991 0.538986,1.957077 0.210938,2.988297c-0.328194,1.031281 -0.984444,1.792999 -1.96875,2.285141c-0.984444,0.492233 -1.992256,0.597702 -3.023438,0.316406c-1.031319,-0.328079 -1.757881,-0.890579 -2.179688,-1.6875c-0.421944,-0.796829 -0.632874,-1.499954 -0.632813,-2.109375c-0.000061,-0.421829 0.070244,-0.843697 0.210938,-1.265617c0.374931,-1.031204 1.0429,-1.792923 2.003906,-2.285164c0.960869,-0.492134 1.956963,-0.574165 2.988281,-0.246086l0,0zm39.199219,13.921867c0.960831,-0.468704 1.956924,-0.539017 2.988281,-0.210922c1.031143,0.328156 1.745972,0.89064 2.144531,1.6875c0.398331,0.79689 0.597534,1.500031 0.597656,2.10936c-0.000122,0.375031 -0.070435,0.773468 -0.210938,1.195313c-0.375107,1.031281 -1.043076,1.792999 -2.003906,2.285156c-0.961044,0.492218 -1.957153,0.550812 -2.988281,0.175781c-1.031357,-0.328094 -1.793076,-0.972626 -2.285156,-1.933578c-0.492294,-0.960922 -0.574326,-1.980453 -0.246094,-3.058609c0.374893,-1.031204 1.042862,-1.781204 2.003906,-2.25l0,0zm-43.769531,1.476578c0.421806,-0.79686 1.148369,-1.359344 2.179688,-1.6875c1.031181,-0.328094 2.038994,-0.257782 3.023438,0.210922c0.984306,0.468796 1.640556,1.218796 1.96875,2.25c0.328049,1.125031 0.257736,2.167999 -0.210938,3.128906c-0.468826,0.960983 -1.218819,1.628937 -2.25,2.003922c-1.125069,0.281265 -2.168037,0.175797 -3.128906,-0.316422c-0.961006,-0.492157 -1.628975,-1.253876 -2.003906,-2.285156c-0.140694,-0.421844 -0.210999,-0.820282 -0.210938,-1.195313c-0.000061,-0.609329 0.210869,-1.312469 0.632813,-2.10936l0,0zm44.296875,-15.398445c1.031128,-0.328079 2.027237,-0.246048 2.988281,0.246086c0.960831,0.492241 1.628799,1.25396 2.003906,2.285164c0.140503,0.421921 0.210815,0.820358 0.210938,1.195313c-0.000122,0.609413 -0.199326,1.300819 -0.597656,2.074211c-0.39856,0.773483 -1.113388,1.347702 -2.144531,1.722672c-1.031357,0.328156 -2.050888,0.246124 -3.058594,-0.246109c-1.007919,-0.492142 -1.652451,-1.25386 -1.933594,-2.285141c-0.328232,-1.031219 -0.246201,-2.027306 0.246094,-2.988297c0.492081,-0.960892 1.253799,-1.628853 2.285156,-2.003899l0,0zm-36.070313,26.156242c0.656174,-0.843719 1.523361,-1.347626 2.601563,-1.511719c1.078049,-0.164032 2.062424,0.058624 2.953125,0.667969c0.890541,0.656281 1.429611,1.535187 1.617188,2.636734c0.187424,1.101578 -0.070396,2.050797 -0.773438,2.847641c-0.609451,0.937515 -1.242271,1.45314 -1.898438,1.546875c-0.656334,0.093765 -1.101639,0.14064 -1.335938,0.140625c-0.796951,0.000015 -1.546951,-0.23436 -2.25,-0.703125c-0.890701,-0.70311 -1.394608,-1.382797 -1.511719,-2.039047c-0.117264,-0.656235 -0.175858,-1.101563 -0.175781,-1.335953c-0.000076,-0.79686 0.257736,-1.546844 0.773438,-2.25l0,0zm26.015625,-35.789055c0.703026,-0.890572 1.370995,-1.382759 2.003906,-1.47657c0.632706,-0.093689 1.066307,-0.140556 1.300789,-0.140617c0.796768,0.000061 1.546768,0.234428 2.249992,0.703117c0.937393,0.703194 1.453018,1.371155 1.546875,2.003914c0.093643,0.632866 0.140518,1.043015 0.140625,1.230469c-0.000107,0.843796 -0.281357,1.640678 -0.84375,2.390617c-0.609482,0.890678 -1.230576,1.382874 -1.863281,1.47657c-0.632912,0.093803 -1.066513,0.140671 -1.300781,0.140625c-0.843849,0.000046 -1.617294,-0.281204 -2.320313,-0.84375c-0.890717,-0.609322 -1.382912,-1.242134 -1.476563,-1.898445c-0.093849,-0.656189 -0.140724,-1.101501 -0.140625,-1.33593c-0.000099,-0.796822 0.234276,-1.546822 0.703125,-2.25l0,0z" fill="#0F61B5" stroke="#0F61B5"/>
 <!--</g>-->
</svg>