<?xml version="1.0"?>
<svg xmlns="http://www.w3.org/2000/svg" xmlns:xlink="http://www.w3.org/1999/xlink" viewBox="0 0 185.39 84.25"><defs><style>.cls-1{fill:none;}.cls-2{clip-path:url(#clip-path);}.cls-3{clip-path:url(#clip-path-2);}.cls-4{fill:#fff;}.cls-5{fill:#0067b0;}.cls-6{fill:#93aed9;}.cls-7{fill:#e31d38;}</style><clipPath id="clip-path" transform="translate(-1.18 -1.18)"><rect class="cls-1" width="187.76" height="87.62"/></clipPath><clipPath id="clip-path-2" transform="translate(-1.18 -1.18)"><rect class="cls-1" x="1.18" y="1.18" width="185.39" height="85.25"/></clipPath></defs><g id="Layer_2" data-name="Layer 2"><g id="Layer_1-2" data-name="Layer 1"><g class="cls-2"><g class="cls-3"><rect class="cls-4" x="3.49" y="3.49" width="178.41" height="77.26" rx="11.18"/><path class="cls-4" d="M171.9,85.43h-156A14.69,14.69,0,0,1,1.18,70.76V15.85A14.69,14.69,0,0,1,15.85,1.18H171.9a14.69,14.69,0,0,1,14.67,14.67V70.76A14.69,14.69,0,0,1,171.9,85.43M15.85,8.17a7.68,7.68,0,0,0-7.68,7.68V70.76a7.68,7.68,0,0,0,7.68,7.68H171.9a7.69,7.69,0,0,0,7.69-7.68V15.85a7.69,7.69,0,0,0-7.69-7.68Z" transform="translate(-1.18 -1.18)"/><rect class="cls-4" x="3.49" y="3.49" width="178.41" height="77.26" rx="11.18"/><path class="cls-5" d="M171.9,83.33h-156A12.59,12.59,0,0,1,3.28,70.76V15.85A12.59,12.59,0,0,1,15.85,3.28H171.9a12.59,12.59,0,0,1,12.58,12.57V70.76A12.59,12.59,0,0,1,171.9,83.33M15.85,6.07a9.79,9.79,0,0,0-9.78,9.78V70.76a9.79,9.79,0,0,0,9.78,9.78H171.9a9.79,9.79,0,0,0,9.78-9.78V15.85a9.79,9.79,0,0,0-9.78-9.78Z" transform="translate(-1.18 -1.18)"/><path class="cls-6" d="M63.57,32.14c-.07.11-8.41,15-8,39.12l-35.43-.13c0-3.77-.62-25-9.15-39a1.63,1.63,0,0,1-.07-1.23,1.51,1.51,0,0,1,1.15-.63H44L44.2,30l3.38-5.47.19-.31-.2-.3a5.9,5.9,0,0,1,.8-7.35,5.89,5.89,0,0,1,10.05,4.16,5.89,5.89,0,0,1-5.89,5.89h-.47L52,27l-.54,2.5-.15.69H62.72a1.5,1.5,0,0,1,1,.52,1.69,1.69,0,0,1-.17,1.4" transform="translate(-1.18 -1.18)"/><path class="cls-5" d="M52.51,16.8a3.79,3.79,0,0,0-2.78,6.37l-3.35,7h2.37l1.9-6.33a3.74,3.74,0,0,0,1.86.5,3.8,3.8,0,1,0,0-7.59" transform="translate(-1.18 -1.18)"/><path class="cls-5" d="M59.87,32.53H15c-.35,0,1.67,4.25,4.1,12.71S22.7,68.58,22.7,68.58H53.1a146.58,146.58,0,0,1,2.09-19.51,109.59,109.59,0,0,1,4.68-16.54" transform="translate(-1.18 -1.18)"/><path class="cls-6" d="M28.13,57.61l.41-.14a4.41,4.41,0,0,0,.57-.25,1.14,1.14,0,0,0,.44-.5,1.64,1.64,0,0,0,.12-.42l.08-15.73c0-1.24-.45-1.55-1.37-1.78V37.72H36.2c3.48,0,4.93.15,6.28,1a5.26,5.26,0,0,1,2.35,4.35c0,2.63-1.43,4-5,5.19l-1.19.41,1,.79a13.17,13.17,0,0,1,2.7,2.77l.56.71,4-5.28,1,.78-4.14,5.69.24.4c1.23,2.06,1.91,2.79,3.43,3.11v1.09H42.63l-.22-.16c-.2-.16-.31-.25-.38-.32L41.71,58l-.56-.44L36,64.26l-1-.75,5.33-7.23-.16-.37a20.57,20.57,0,0,0-3.37-5.67A3.11,3.11,0,0,0,34,48.72h-.7v6.64c0,1.37.17,2.06,1.48,2.27v1.13H28.13ZM34,39.09h-.69v8.14l.65.05c.66,0,1.29,0,1.69,0,3.11,0,5.13-1.42,5.13-4.12,0-3.5-2.81-4.11-6.78-4.11" transform="translate(-1.18 -1.18)"/><path class="cls-7" d="M83.06,30.68a24.09,24.09,0,0,1-6.26.74c-4.31,0-9.3-2.18-9.3-8.3s4.29-8.44,10.22-8.44a15.71,15.71,0,0,1,4.9.72l-.35,3.52a8.17,8.17,0,0,0-3.94-1c-3.5,0-6.38,1.46-6.38,5.24,0,3.18,2.25,5.1,5.4,5.1a3.64,3.64,0,0,0,1.53-.28v-3.2H76.36V21.68h6.7Z" transform="translate(-1.18 -1.18)"/><path class="cls-7" d="M90.92,18c4.26,0,6.49,2.54,6.49,6.7s-2.26,6.69-6.49,6.69-6.49-2.58-6.49-6.69S86.65,18,90.92,18m0,10.83c2.1,0,2.93-2,2.93-4.13s-.83-4.14-2.93-4.14S88,22.42,88,24.67s.83,4.13,2.93,4.13" transform="translate(-1.18 -1.18)"/><path class="cls-7" d="M104.88,18c4.27,0,6.5,2.54,6.5,6.7s-2.27,6.69-6.5,6.69-6.49-2.58-6.49-6.69,2.23-6.7,6.49-6.7m0,10.83c2.1,0,2.94-2,2.94-4.13s-.84-4.14-2.94-4.14S102,22.42,102,24.67s.84,4.13,2.93,4.13" transform="translate(-1.18 -1.18)"/><path class="cls-7" d="M112.83,18.19h4.72c4.5,0,7.66,1.42,7.66,6.42,0,4.84-3.25,6.53-7.66,6.53h-4.72Zm3.46,10.39h1.33c2.58,0,4-1.34,4-3.91s-1.51-3.92-4-3.92h-1.33Z" transform="translate(-1.18 -1.18)"/><polygon class="cls-7" points="66.99 33.77 72.49 33.77 77.96 44.76 78.01 44.76 77.94 33.77 81.88 33.77 81.88 49.95 76.52 49.95 70.86 38.89 70.82 38.89 70.96 49.95 66.99 49.95 66.99 33.77"/><polygon class="cls-7" points="84.09 37.01 93.22 37.01 93.22 39.46 87.55 39.46 87.55 42.13 92.91 42.13 92.91 44.57 87.55 44.57 87.55 47.5 93.43 47.5 93.43 49.95 84.09 49.95 84.09 37.01"/><rect class="cls-7" x="95.69" y="37.01" width="3.45" height="12.94"/><path class="cls-7" d="M114.4,50.76a19,19,0,0,1-5,.6c-3.45,0-7.43-1.75-7.43-6.64S105.39,38,110.13,38a12.56,12.56,0,0,1,3.92.58l-.28,2.82a6.58,6.58,0,0,0-3.15-.84c-2.81,0-5.1,1.17-5.1,4.2,0,2.54,1.8,4.08,4.31,4.08a3,3,0,0,0,1.23-.23V46h-2V43.57h5.36Z" transform="translate(-1.18 -1.18)"/><polygon class="cls-7" points="115.68 37.01 119.13 37.01 119.13 41.96 123.21 41.96 123.21 37.01 126.66 37.01 126.66 49.95 123.21 49.95 123.21 44.41 119.13 44.41 119.13 49.95 115.68 49.95 115.68 37.01"/><path class="cls-7" d="M130.16,38.19h6c2.41,0,4.21,1.05,4.21,3.28a2.94,2.94,0,0,1-2.28,3v0c1.72.35,2.61,1.28,2.61,2.86,0,3.09-2.72,3.74-5,3.74h-5.45Zm3.45,5.12h1c1.13,0,2.3-.28,2.3-1.38s-1.11-1.29-2.26-1.29h-1Zm0,5.37h1c1.27,0,2.58-.18,2.58-1.49s-1.35-1.55-2.54-1.55h-1.06Z" transform="translate(-1.18 -1.18)"/><path class="cls-7" d="M148.17,38c4.26,0,6.49,2.55,6.49,6.7s-2.26,6.7-6.49,6.7-6.49-2.58-6.49-6.7,2.23-6.7,6.49-6.7m0,10.84c2.09,0,2.93-2,2.93-4.14s-.84-4.14-2.93-4.14-2.93,1.9-2.93,4.14.83,4.14,2.93,4.14" transform="translate(-1.18 -1.18)"/><path class="cls-7" d="M156,38.19h6.16c2.3,0,4.17,1,4.17,3.26a3,3,0,0,1-2.48,3.27v0c1.11.3,1.18,1.28,1.84,2.86L167,51.13h-3.6l-.73-2.33c-.72-2.23-1.16-2.79-2.44-2.79h-.72v5.12H156Zm3.45,5.37h.91c1.11,0,2.52,0,2.52-1.5,0-1.2-1.21-1.42-2.52-1.42h-.91Z" transform="translate(-1.18 -1.18)"/><path class="cls-7" d="M67.87,54.94H73c4.94,0,7.25,1.67,7.25,5.31,0,3.27-2.38,5.22-6.42,5.22H72.19v5.66H67.87Zm4.32,7.47H73.3c1.48,0,2.66-.54,2.66-2.23S74.78,58,73.3,58H72.19Z" transform="translate(-1.18 -1.18)"/><polygon class="cls-7" points="80.32 57 83.77 57 83.77 61.95 87.85 61.95 87.85 57 91.3 57 91.3 69.95 87.85 69.95 87.85 64.4 83.77 64.4 83.77 69.95 80.32 69.95 80.32 57"/><path class="cls-7" d="M97.82,58.18h4.23l5,12.95h-3.79l-1-2.77H97.43l-1,2.77h-3.5Zm2.12,2.67h0l-1.67,5.06h3.24Z" transform="translate(-1.18 -1.18)"/><path class="cls-7" d="M107.37,58.18h6.16c2.3,0,4.17,1,4.17,3.26a3,3,0,0,1-2.49,3.27v0c1.11.29,1.19,1.28,1.84,2.85l1.26,3.53h-3.6L114,68.79c-.71-2.23-1.15-2.78-2.43-2.78h-.72v5.12h-3.45Zm3.45,5.38h.9c1.12,0,2.53,0,2.53-1.5,0-1.21-1.21-1.43-2.53-1.43h-.9Z" transform="translate(-1.18 -1.18)"/><polygon class="cls-7" points="118.56 57 123.99 57 126.73 65.6 126.77 65.6 129.65 57 134.88 57 134.88 69.95 131.5 69.95 131.56 60.01 131.52 60.01 128.22 69.95 125.04 69.95 121.89 60.01 121.86 60.01 121.93 69.95 118.56 69.95 118.56 57"/><path class="cls-7" d="M141.3,58.18h4.24l5,12.95h-3.78l-1-2.77h-4.87l-1,2.77h-3.5Zm2.12,2.67h0l-1.67,5.06H145Z" transform="translate(-1.18 -1.18)"/><path class="cls-7" d="M161.27,70.83a14.38,14.38,0,0,1-3.84.52c-3.45,0-7.44-1.75-7.44-6.64,0-4.51,3.16-6.75,7.42-6.75a13.46,13.46,0,0,1,3.84.67l-.28,2.8a6.75,6.75,0,0,0-3.37-.91,3.93,3.93,0,0,0-4,4.19c0,2.54,1.79,4.08,4.32,4.08a9.16,9.16,0,0,0,3.23-.67Z" transform="translate(-1.18 -1.18)"/><path class="cls-7" d="M174.36,59.47a1.27,1.27,0,1,1,1.27,1.27,1.27,1.27,0,0,1-1.27-1.27m2.14,0a.87.87,0,1,0-.87.91.88.88,0,0,0,.87-.91m-1.37-.69h.56c.34,0,.53.09.53.4a.35.35,0,0,1-.39.38l.34.6h-.34l-.3-.58h-.06v.58h-.34Zm.34.53h.2c.13,0,.21,0,.21-.15s-.13-.12-.24-.12h-.17Z" transform="translate(-1.18 -1.18)"/><polygon class="cls-7" points="164.99 65.07 160.2 57 164.17 57 166.71 62.19 169.21 57 173.18 57 168.44 65.07 168.44 69.95 164.99 69.95 164.99 65.07"/></g></g></g></g><title>Asset 1</title></svg>